<svg xmlns="http://www.w3.org/2000/svg" viewBox="0 0 440 440" width="440" height="440">
  <style>
    .bg { fill: #0A101F; rx: 16px; }
    .grid { stroke: #223052; stroke-width: 1.5; fill: none; }
    .axis { stroke: #223052; stroke-width: 1; }
    .area { fill: rgba(34, 211, 238, 0.35); stroke: #22D3EE; stroke-width: 2.5; }
    .point { fill: #A78BFA; r: 4; }
    .text { fill: #C9D4E8; font-family: 'JetBrains Mono', monospace, sans-serif; font-size: 12px; font-weight: 600; text-anchor: middle; }
    .title { fill: #22D3EE; font-family: 'JetBrains Mono', monospace, sans-serif; font-size: 14px; font-weight: bold; text-anchor: middle; }
  </style>

  <rect width="440" height="440" class="bg"/>
  <text x="220" y="32" class="title">~/ language radar</text>

  <!-- Radar Grid Webs (25%, 50%, 75%, 100%) -->
  <polygon points="220,90 324,150 324,270 220,330 116,270 116,150" class="grid"/>
  <polygon points="220,120 298,165 298,255 220,300 142,255 142,165" class="grid"/>
  <polygon points="220,150 272,180 272,240 220,270 168,240 168,180" class="grid"/>
  <polygon points="220,180 246,195 246,225 220,240 194,225 194,195" class="grid"/>

  <!-- Axes -->
  <line x1="220" y1="210" x2="220" y2="90" class="axis"/>
  <line x1="220" y1="210" x2="324" y2="150" class="axis"/>
  <line x1="220" y1="210" x2="324" y2="270" class="axis"/>
  <line x1="220" y1="210" x2="220" y2="330" class="axis"/>
  <line x1="220" y1="210" x2="116" y2="270" class="axis"/>
  <line x1="220" y1="210" x2="116" y2="150" class="axis"/>

  <!-- Data Polygon (Scaled: C++ 94%, JS 88%, HTML/CSS 85%, Python 70%, C 75%, Java 40%) -->
  <polygon points="220,97 311,157 308,261 220,294 142,255 178,186" class="area"/>

  <!-- Data Points -->
  <circle cx="220" cy="97" r="4" class="point"/>
  <circle cx="311" cy="157" r="4" class="point"/>
  <circle cx="308" cy="261" r="4" class="point"/>
  <circle cx="220" cy="294" r="4" class="point"/>
  <circle cx="142" cy="255" r="4" class="point"/>
  <circle cx="178" cy="186" r="4" class="point"/>

  <!-- Labels -->
  <text x="220" y="75" class="text">C++ (94%)</text>
  <text x="350" y="145" class="text">JavaScript (88%)</text>
  <text x="350" y="280" class="text">HTML / CSS (85%)</text>
  <text x="220" y="352" class="text">Python (70%)</text>
  <text x="90" y="280" class="text">C (75%)</text>
  <text x="90" y="145" class="text">Java (40%)</text>
</svg>
